# xmcd
#
# Track frame offsets: 
#        150
#        16735
#        35730
#        72642
#        120670
#        135037
#
# Disc length: 2085 seconds
#
# Revision: 0
# Processed by: cddbd v1.5.2PL0 Copyright (c) Steve Scherf et al.
# Submitted via: ExactAudioCopy v1.4
#
DISCID=49082306
DTITLE=Double Exposure - Ten Percent
DYEAR=1993
DGENRE=
TTITLE0=Ten Percent (Radio Edit)
TTITLE1=Ten Percent (Radio Mix)
TTITLE2=Ten Percent (Ken Lou Mix)
TTITLE3=Ten Percent (Masters At Work Medley)
TTITLE4=Ten Percent (Bonus Beats)
TTITLE5=Ten Percent (TV Track)
EXTD=
EXTT0=
EXTT1=
EXTT2=
EXTT3=
EXTT4=
EXTT5=
PLAYORDER=
